<svg width="200" height="200" viewBox="0 0 100 100" xmlns="http://www.w3.org/2000/svg">
  <defs>
    <!-- Skin Gradient -->
    <radialGradient id="skinGradient" cx="50%" cy="40%" r="60%">
      <stop offset="0%" stop-color="#FFD5CC"/>
      <stop offset="100%" stop-color="#E8A598"/>
    </radialGradient>

    <!-- Shirt Gradient -->
    <linearGradient id="shirtGradient" x1="0%" y1="0%" x2="0%" y2="100%">
      <stop offset="0%" stop-color="#3B5998"/>
      <stop offset="100%" stop-color="#1F2D3D"/>
    </linearGradient>

    <!-- Hair Gradient -->
    <linearGradient id="hairGradient" x1="0%" y1="0%" x2="100%" y2="100%">
      <stop offset="0%" stop-color="#4E342E"/>
      <stop offset="100%" stop-color="#1B0B07"/>
    </linearGradient>
  </defs>

  <!-- Background Circle -->
  <circle cx="50" cy="50" r="50" fill="#D0E4FF"/>

  <!-- Head -->
  <circle cx="50" cy="45" r="22" fill="url(#skinGradient)" />

  <!-- Hair (Layered for realism) -->
  <path d="M28 35 Q28 18 50 18 Q72 18 72 35 Q72 25 50 24 Q28 25 28 35 Z" fill="url(#hairGradient)" />

  <!-- Eyes with reflections -->
  <circle cx="42" cy="40" r="3" fill="#2C3E50" />
  <circle cx="58" cy="40" r="3" fill="#2C3E50" />
  <circle cx="41.5" cy="39.5" r="0.8" fill="#fff" />
  <circle cx="57.5" cy="39.5" r="0.8" fill="#fff" />

  <!-- Nose -->
  <path d="M49 44 Q50 47 51 44" stroke="#E8A598" stroke-width="1" fill="none" />

  <!-- Mouth (Soft smile with depth) -->
  <path d="M44 52 Q50 56 56 52" stroke="#C0392B" stroke-width="1.2" fill="none" stroke-linecap="round" />

  <!-- Shirt / Body -->
  <path d="M28 65 Q28 60 38 60 L62 60 Q72 60 72 65 L72 100 L28 100 Z" fill="url(#shirtGradient)" />

  <!-- Collar -->
  <path d="M38 60 L47 70 L50 66 L53 70 L62 60" fill="#1F2D3D" />

  <!-- Soft shadow under neck -->
  <ellipse cx="50" cy="64" rx="7" ry="3" fill="rgba(0,0,0,0.15)" />
</svg>
