<svg width="100" height="100" viewBox="0 0 100 100" xmlns="http://www.w3.org/2000/svg">
  <defs>
    <!-- Skin Gradient -->
    <radialGradient id="skinTone" cx="50%" cy="45%" r="50%">
      <stop offset="0%" stop-color="#FFD1C1"/>
      <stop offset="100%" stop-color="#FDBCB4"/>
    </radialGradient>

    <!-- Hair Shine -->
    <linearGradient id="hairShine" x1="0%" y1="0%" x2="100%" y2="0%">
      <stop offset="0%" stop-color="#3C556E"/>
      <stop offset="50%" stop-color="#2C3E50"/>
      <stop offset="100%" stop-color="#3C556E"/>
    </linearGradient>

    <!-- Blazer Gradient -->
    <linearGradient id="blazer" x1="0%" y1="0%" x2="0%" y2="100%">
      <stop offset="0%" stop-color="#34495E"/>
      <stop offset="100%" stop-color="#2C3E50"/>
    </linearGradient>
  </defs>

  <!-- Background Circle -->
  <circle cx="50" cy="50" r="50" fill="#1ABC9C"/>

  <!-- Face -->
  <circle cx="50" cy="45" r="25" fill="url(#skinTone)"/>

  <!-- Hair (3D Shine) -->
  <path d="M25 35 Q25 18 50 20 Q75 18 75 35 Q75 42 68 45 Q62 40 58 38 Q54 35 50 35 Q46 35 42 38 Q38 40 32 45 Q25 42 25 35" fill="url(#hairShine)"/>

  <!-- Eyes with shine -->
  <circle cx="42" cy="40" r="2.5" fill="#2C3E50"/>
  <circle cx="41.5" cy="39.5" r="0.8" fill="#fff"/>
  <circle cx="58" cy="40" r="2.5" fill="#2C3E50"/>
  <circle cx="57.5" cy="39.5" r="0.8" fill="#fff"/>

  <!-- Eyebrows -->
  <path d="M38 36 Q42 35 46 36" stroke="#2C3E50" stroke-width="1" fill="none" stroke-linecap="round"/>
  <path d="M54 36 Q58 35 62 36" stroke="#2C3E50" stroke-width="1" fill="none" stroke-linecap="round"/>

  <!-- Nose Shadowed -->
  <path d="M50 46 C51 47 51 49 50 50 C49 49 49 47 50 46" fill="#E8A598"/>

  <!-- Mouth (with lips) -->
  <path d="M47 52 Q50 55 53 52" stroke="#C0392B" stroke-width="1.5" fill="none" stroke-linecap="round"/>
  <path d="M47 52 Q50 53 53 52" stroke="#EC7063" stroke-width="0.5" fill="none" stroke-linecap="round"/>

  <!-- Body / Blazer with gradient -->
  <path d="M25 75 Q25 65 35 65 L65 65 Q75 65 75 75 L75 100 L25 100 Z" fill="url(#blazer)"/>

  <!-- Lapels -->
  <path d="M35 65 L42 72 L35 75" fill="#3D566E"/>
  <path d="M65 65 L58 72 L65 75" fill="#3D566E"/>

  <!-- Inner shirt -->
  <path d="M42 72 L58 72 L58 100 L42 100 Z" fill="#ECF0F1"/>

  <!-- Collar -->
  <path d="M42 65 L47 72 L50 68 L53 72 L58 65" fill="#BDC3C7"/>
</svg>
